<?xml version="1.0" standalone="no"?>
<!DOCTYPE svg PUBLIC "-//W3C//DTD SVG 20010904//EN"
 "http://www.w3.org/TR/2001/REC-SVG-20010904/DTD/svg10.dtd">
<svg version="1.0" xmlns="http://www.w3.org/2000/svg"
 width="628.000000pt" height="583.000000pt" viewBox="0 0 628.000000 583.000000"
 preserveAspectRatio="xMidYMid meet">

<g transform="translate(0.000000,583.000000) scale(0.100000,-0.100000)"
fill="#000000" stroke="none">
<path d="M2943 5669 c-70 -71 -136 -134 -145 -140 -12 -6 -43 -3 -100 10 -46
11 -135 31 -198 46 -160 38 -202 37 -247 -6 l-35 -34 6 -80 c3 -44 12 -109 21
-145 8 -36 20 -87 25 -115 30 -166 72 -354 86 -381 34 -67 -3 -64 774 -64 638
0 705 2 730 17 43 25 51 47 89 238 11 55 34 165 51 245 18 89 30 174 30 222 0
73 -1 77 -31 102 -43 37 -87 34 -327 -20 l-205 -46 -141 141 -141 141 -57 0
-57 0 -128 -131z m337 -144 c80 -80 151 -145 159 -145 8 0 42 6 75 14 34 8
113 26 176 40 63 14 137 31 163 37 27 6 51 8 54 5 4 -4 2 -28 -4 -54 -12 -48
-33 -145 -53 -242 -37 -186 -61 -285 -69 -289 -5 -4 -303 -4 -662 -1 l-654 5
-26 130 c-14 72 -41 201 -59 288 -18 87 -30 160 -27 163 3 4 30 1 59 -6 108
-24 275 -62 334 -76 33 -8 67 -14 75 -14 8 0 79 65 159 145 80 80 147 145 150
145 3 0 70 -65 150 -145z"/>
<path d="M1726 4895 c-236 -143 -410 -310 -482 -461 -14 -30 -29 -56 -34 -59
-5 -3 -44 4 -87 16 -239 64 -341 76 -387 43 -56 -40 -154 -290 -214 -544 -10
-42 -16 -125 -17 -235 l-2 -170 -131 -7 c-145 -7 -190 -21 -226 -71 -19 -26
-21 -45 -24 -240 -5 -303 25 -474 114 -650 27 -53 99 -152 128 -176 22 -18 20
-38 -4 -46 -30 -10 -282 -180 -309 -209 -40 -43 -51 -88 -34 -139 35 -107 313
-426 483 -553 81 -61 250 -154 280 -154 43 -1 43 -17 -2 -91 -68 -112 -78
-135 -78 -177 0 -71 83 -138 354 -282 81 -44 104 -62 163 -131 90 -107 119
-121 256 -127 l108 -5 16 -38 c8 -22 28 -47 45 -57 16 -9 38 -31 48 -49 l19
-33 154 0 155 0 71 -82 c38 -46 81 -90 93 -98 63 -40 151 -51 221 -27 38 14
122 88 184 164 l35 43 529 0 528 0 30 -42 c46 -67 122 -135 174 -157 117 -50
219 -13 331 118 l68 81 128 0 c104 0 132 3 144 16 9 8 16 21 16 28 0 6 13 19
29 29 16 9 39 37 50 61 l22 44 137 4 c162 6 174 11 255 102 48 55 75 74 184
131 193 101 261 149 280 192 21 52 12 91 -47 194 -27 49 -50 93 -50 98 0 4 33
20 73 34 208 74 434 254 640 512 47 59 93 123 102 142 23 48 15 116 -16 150
-28 29 -223 173 -286 210 -24 14 -43 29 -43 35 0 5 26 39 59 74 152 166 222
409 225 781 1 190 0 203 -20 230 -37 50 -73 63 -200 74 -149 13 -167 19 -154
54 15 39 12 259 -5 354 -24 133 -41 198 -92 343 -72 207 -97 238 -191 238 -58
0 -207 -26 -317 -55 -56 -15 -60 -15 -72 1 -7 10 -13 25 -13 34 0 25 -83 159
-139 225 -75 88 -191 186 -323 275 -174 117 -209 121 -295 33 -85 -87 -238
-328 -282 -445 l-11 -28 -118 0 -119 0 -24 35 c-13 19 -41 47 -62 61 -79 52
-95 54 -597 54 -480 0 -501 -2 -576 -42 -33 -18 -94 -82 -94 -98 0 -6 -43 -10
-100 -10 -87 0 -101 2 -106 18 -40 121 -203 396 -288 486 -31 34 -38 36 -93
36 -57 0 -67 -4 -167 -65z m-853 -610 c19 4 43 2 53 -3 14 -8 3 -11 -45 -14
-63 -3 -78 2 -65 23 5 8 9 8 14 -1 5 -7 20 -9 43 -5z m167 -35 c0 -12 -37 -12
-65 0 -15 7 -10 9 23 9 23 1 42 -3 42 -9z m-230 -25 c0 -14 -4 -25 -10 -25
-11 0 -14 33 -3 43 11 11 13 8 13 -18z m305 5 c4 -6 -7 -10 -24 -10 -17 0 -31
5 -31 10 0 6 11 10 24 10 14 0 28 -4 31 -10z m4403 -12 c-4 -12 -127 -31 -138
-21 -12 11 26 19 71 15 32 -3 49 -1 49 7 0 6 5 11 11 11 6 0 9 -6 7 -12z
m-4330 -15 c-10 -2 -26 -2 -35 0 -10 3 -2 5 17 5 19 0 27 -2 18 -5z m4352 -34
c0 -10 -4 -19 -10 -19 -5 0 -10 12 -10 26 0 14 4 23 10 19 6 -3 10 -15 10 -26z
m-4756 -12 c-9 -24 -23 -11 -17 14 3 12 9 17 15 11 5 -5 6 -16 2 -25z m476 23
c0 -5 -9 -10 -19 -10 -11 0 -23 5 -26 10 -4 6 5 10 19 10 14 0 26 -4 26 -10z
m4090 0 c-20 -13 -80 -13 -80 0 0 6 21 10 48 10 34 0 43 -3 32 -10z m-4030
-26 c0 -2 -11 -4 -25 -4 -14 0 -25 4 -25 9 0 4 11 6 25 3 14 -2 25 -6 25 -8z
m3910 6 c11 -7 7 -10 -18 -10 -20 0 -31 4 -27 10 8 13 26 13 45 0z m-75 -30
c-3 -5 -17 -10 -31 -10 -13 0 -24 5 -24 10 0 6 14 10 31 10 17 0 28 -4 24 -10z
m-4395 -30 c0 -16 -4 -30 -10 -30 -11 0 -14 43 -3 53 11 12 13 8 13 -23z
m4800 4 c0 -14 -4 -23 -10 -19 -5 3 -10 15 -10 26 0 10 5 19 10 19 6 0 10 -12
10 -26z m-475 6 c4 -6 -5 -10 -20 -10 -15 0 -24 4 -20 10 3 6 12 10 20 10 8 0
17 -4 20 -10z m505 -82 c0 -9 -4 -20 -10 -23 -6 -4 -10 9 -10 32 0 28 3 34 10
23 5 -8 10 -23 10 -32z m-4850 5 c0 -10 -5 -25 -10 -33 -7 -11 -10 -7 -10 18
0 17 5 32 10 32 6 0 10 -8 10 -17z m4870 -85 c0 -32 -3 -39 -10 -28 -13 20
-13 70 0 70 6 0 10 -19 10 -42z m-4900 -14 c0 -21 -4 -33 -10 -29 -17 10 -11
65 7 65 2 0 3 -16 3 -36z m4920 -99 c-8 -40 -8 -40 -9 15 0 35 3 50 8 40 5 -8
5 -33 1 -55z m-4949 -72 c-8 -14 -10 -3 -11 43 0 33 3 64 8 68 11 12 14 -92 3
-111z m965 50 c-13 -14 -25 9 -13 28 12 20 12 20 15 -1 2 -12 1 -24 -2 -27z
m3060 -3 c8 0 14 -7 14 -15 0 -8 -2 -15 -4 -15 -10 0 -36 32 -35 43 0 9 2 8 6
0 2 -7 11 -13 19 -13z m-3096 -9 c0 -5 -11 -16 -25 -25 -29 -19 -32 -14 -8 14
18 21 33 26 33 11z m4050 -97 c0 -43 -4 -74 -10 -74 -6 0 -10 34 -10 81 0 51
4 78 10 74 6 -3 10 -40 10 -81z m-3290 64 c0 -5 -12 -9 -27 -8 -48 3 -73 0
-73 -9 0 -5 30 -8 66 -7 53 1 67 -2 75 -17 7 -11 17 -16 29 -12 10 3 21 1 25
-5 3 -5 14 -10 23 -10 16 1 16 2 -1 14 -16 12 -15 14 12 26 21 8 35 9 49 1 27
-14 62 -14 62 0 0 8 13 9 43 4 70 -12 127 -14 127 -4 0 14 38 11 42 -3 4 -10
10 -10 32 0 33 15 66 16 66 2 0 -5 16 -10 35 -10 19 0 35 3 35 8 0 4 11 8 25
8 14 1 25 -2 25 -7 0 -5 11 -9 25 -9 14 0 25 5 25 10 0 14 28 12 32 -2 4 -10
13 -10 44 0 25 7 40 8 42 2 5 -14 29 -12 35 3 4 9 8 8 17 -3 9 -11 13 -12 17
-2 6 14 33 16 33 2 0 -13 27 -13 32 0 2 6 31 6 78 1 41 -4 77 -4 78 0 5 13 70
11 74 -1 2 -7 23 -6 61 1 47 10 60 10 67 0 5 -9 27 -12 66 -10 33 2 65 0 72
-4 15 -10 72 1 72 14 0 5 7 9 15 9 8 0 15 -4 15 -10 0 -15 44 -12 66 5 11 8
14 15 7 15 -7 0 -13 5 -13 10 0 13 273 7 365 -7 153 -25 304 -122 407 -264 26
-34 51 -84 83 -164 21 -51 23 -131 36 -1304 7 -646 13 -939 21 -948 6 -7 19
-13 28 -13 30 0 77 -48 96 -96 17 -44 17 -48 -1 -101 -16 -46 -17 -59 -6 -89
11 -31 10 -40 -11 -82 -41 -83 -10 -79 -645 -86 -310 -3 -563 -3 -563 -1 0 3
33 36 73 74 39 38 70 72 67 75 -3 3 -39 6 -80 7 -72 3 -77 1 -123 -34 -82 -62
-201 -114 -322 -139 -92 -19 -141 -22 -305 -22 -167 0 -210 4 -300 24 -123 27
-203 62 -291 126 -61 45 -65 47 -132 47 -38 -1 -73 -5 -78 -10 -6 -6 16 -34
61 -76 38 -37 70 -69 70 -71 0 -2 -242 -2 -537 0 -601 6 -587 4 -624 76 -21
42 -24 80 -8 106 8 13 7 27 -5 56 -38 92 -8 173 79 211 l52 23 12 629 c6 345
13 840 14 1098 2 356 6 478 16 505 29 79 83 178 122 225 63 76 219 184 267
185 10 0 26 7 36 15 11 8 41 15 67 15 26 0 51 5 54 10 9 14 375 12 375 -2z
m120 2 c0 -5 -7 -10 -15 -10 -8 0 -15 5 -15 10 0 6 7 10 15 10 8 0 15 -4 15
-10z m50 0 c0 -5 -7 -10 -15 -10 -8 0 -15 5 -15 10 0 6 7 10 15 10 8 0 15 -4
15 -10z m120 0 c0 -5 -18 -10 -40 -10 -22 0 -40 5 -40 10 0 6 18 10 40 10 22
0 40 -4 40 -10z m170 0 c0 -5 -12 -10 -27 -10 -22 0 -25 2 -13 10 20 13 40 13
40 0z m170 0 c0 -5 -7 -10 -15 -10 -8 0 -15 5 -15 10 0 6 7 10 15 10 8 0 15
-4 15 -10z m40 0 c0 -5 -4 -10 -10 -10 -5 0 -10 5 -10 10 0 6 5 10 10 10 6 0
10 -4 10 -10z m100 0 c0 -5 -17 -10 -37 -10 -28 0 -34 3 -23 10 20 13 60 13
60 0z m240 0 c0 -5 -10 -10 -22 -10 -19 0 -20 2 -8 10 19 13 30 13 30 0z m217
-3 c10 -11 -90 -8 -107 3 -11 7 2 9 42 7 32 -2 61 -6 65 -10z m103 3 c0 -5
-12 -10 -27 -10 -22 0 -25 2 -13 10 20 13 40 13 40 0z m120 -1 c0 -5 -18 -9
-40 -9 -22 0 -40 4 -40 9 0 4 18 8 40 8 22 0 40 -4 40 -8z m120 1 c0 -5 -19
-10 -42 -9 -33 0 -38 2 -23 9 28 12 65 12 65 0z m50 0 c0 -5 -7 -10 -15 -10
-8 0 -15 5 -15 10 0 6 7 10 15 10 8 0 15 -4 15 -10z m-1553 -6 c-3 -3 -12 -4
-19 -1 -8 3 -5 6 6 6 11 1 17 -2 13 -5z m491 -1 c-10 -2 -28 -2 -40 0 -13 2
-5 4 17 4 22 1 32 -1 23 -4z m379 1 c-3 -3 -12 -4 -19 -1 -8 3 -5 6 6 6 11 1
17 -2 13 -5z m-1782 -33 c-16 -16 -32 -27 -34 -25 -7 6 41 54 53 54 6 0 -2
-13 -19 -29z m3277 -3 c35 -34 63 -68 56 -68 -2 0 -26 23 -53 50 -55 55 -57
69 -3 18z m-4145 -100 c-2 -18 -4 -6 -4 27 0 33 2 48 4 33 2 -15 2 -42 0 -60z
m815 50 c-7 -7 -12 -8 -12 -2 0 14 12 26 19 19 2 -3 -1 -11 -7 -17z m-32 -41
c0 -2 -11 -17 -25 -33 -14 -16 -25 -23 -25 -17 0 15 31 53 42 53 5 0 8 -2 8
-3z m3450 -7 c0 -5 -2 -10 -4 -10 -3 0 -8 5 -11 10 -3 6 -1 10 4 10 6 0 11 -4
11 -10z m25 -38 c-8 -8 -25 10 -19 20 4 6 9 5 15 -3 4 -7 6 -15 4 -17z m745
-66 c0 -41 -4 -78 -10 -81 -6 -4 -10 23 -10 74 0 47 4 81 10 81 6 0 10 -31 10
-74z m-720 28 c0 -8 5 -14 10 -14 6 0 10 -8 10 -17 0 -15 -4 -13 -20 7 -21 26
-27 56 -10 45 6 -3 10 -13 10 -21z m-3552 4 c-2 -6 -10 -14 -16 -16 -7 -2 -10
2 -6 12 7 18 28 22 22 4z m-698 -60 c0 -16 -4 -28 -10 -28 -5 0 -10 19 -10 43
0 31 3 38 10 27 5 -8 10 -27 10 -42z m670 12 c0 -11 -4 -20 -10 -20 -5 0 -10
9 -10 20 0 11 5 20 10 20 6 0 10 -9 10 -20z m3630 -36 c0 -8 -4 -14 -10 -14
-5 0 -10 9 -10 21 0 11 5 17 10 14 6 -3 10 -13 10 -21z m-3658 -26 c-9 -9 -12
-7 -12 12 0 19 3 21 12 12 9 -9 9 -15 0 -24z m-606 -38 c16 -14 19 -30 4 -30
-5 0 -10 7 -10 15 0 7 -7 18 -17 23 -11 7 -14 15 -8 28 8 18 9 18 12 -3 2 -12
11 -27 19 -33z m584 -10 c0 -16 -4 -30 -10 -30 -5 0 -10 14 -10 30 0 17 5 30
10 30 6 0 10 -13 10 -30z m3700 4 c0 -14 -4 -23 -10 -19 -5 3 -10 15 -10 26 0
10 5 19 10 19 6 0 10 -12 10 -26z m623 7 c2 -10 1 -25 -4 -32 -6 -10 -9 -4 -9
19 0 36 5 42 13 13z m-4780 -48 c-7 -2 -21 -2 -30 0 -10 3 -4 5 12 5 17 0 24
-2 18 -5z m4186 -50 c1 -13 -3 -23 -9 -23 -5 0 -10 19 -9 43 0 32 2 37 9 22 5
-11 9 -30 9 -42z m567 20 c-11 -11 -19 6 -11 24 8 17 8 17 12 0 3 -10 2 -21
-1 -24z m-4616 7 c0 -5 -4 -10 -10 -10 -5 0 -10 5 -10 10 0 6 5 10 10 10 6 0
10 -4 10 -10z m299 -22 c0 -18 -4 -42 -9 -53 -6 -15 -9 -6 -9 33 -1 28 4 52 9
52 6 0 10 -15 9 -32z m4301 -9 c0 -5 -4 -9 -10 -9 -5 0 -10 7 -10 16 0 8 5 12
10 9 6 -3 10 -10 10 -16z m-123 -15 c-3 -3 -12 -4 -19 -1 -8 3 -5 6 6 6 11 1
17 -2 13 -5z m-160 -30 c-3 -3 -12 -4 -19 -1 -8 3 -5 6 6 6 11 1 17 -2 13 -5z
m-247 -59 c0 -24 -4 -47 -10 -50 -6 -4 -10 15 -10 50 0 35 4 54 10 50 6 -3 10
-26 10 -50z m-3970 -835 c0 -5 -13 -10 -30 -10 -16 0 -30 5 -30 10 0 6 14 10
30 10 17 0 30 -4 30 -10z m170 -411 c0 -263 -4 -377 -12 -384 -8 -7 -9 -5 -4
8 3 10 6 186 6 389 0 204 2 369 5 366 3 -3 6 -174 5 -379z m3847 335 c-3 -3
-12 -4 -19 -1 -8 3 -5 6 6 6 11 1 17 -2 13 -5z m210 0 c-3 -3 -12 -4 -19 -1
-8 3 -5 6 6 6 11 1 17 -2 13 -5z m-257 -420 c0 -274 -3 -413 -10 -409 -6 4
-10 153 -10 416 0 266 3 409 10 409 7 0 10 -145 10 -416z m-4373 400 c-3 -3
-12 -4 -19 -1 -8 3 -5 6 6 6 11 1 17 -2 13 -5z m-47 -24 c0 -5 -9 -10 -21 -10
-11 0 -17 5 -14 10 3 6 13 10 21 10 8 0 14 -4 14 -10z m-50 -24 c0 -9 -30 -14
-35 -6 -4 6 3 10 14 10 12 0 21 -2 21 -4z m-50 -26 c0 -5 -9 -10 -21 -10 -11
0 -17 5 -14 10 3 6 13 10 21 10 8 0 14 -4 14 -10z m-45 -20 c3 -5 -3 -10 -15
-10 -12 0 -18 5 -15 10 3 6 10 10 15 10 5 0 12 -4 15 -10z m5175 -6 c0 -2 -9
-4 -21 -4 -11 0 -18 4 -14 10 5 8 35 3 35 -6z m-5220 -24 c0 -5 -7 -10 -15
-10 -8 0 -15 5 -15 10 0 6 7 10 15 10 8 0 15 -4 15 -10z m5281 -7 c28 -14 31
-18 14 -21 -10 -3 -21 1 -23 7 -2 6 -10 11 -17 11 -8 0 -17 5 -20 10 -9 15 8
12 46 -7z m-5321 -13 c0 -5 -7 -10 -16 -10 -8 0 -12 5 -9 10 3 6 10 10 16 10
5 0 9 -4 9 -10z m-40 -20 c0 -5 -8 -10 -17 -10 -15 0 -16 2 -3 10 19 12 20 12
20 0z m5423 -7 c-7 -2 -19 -2 -25 0 -7 3 -2 5 12 5 14 0 19 -2 13 -5z m-5463
-23 c0 -5 -5 -10 -11 -10 -6 0 -17 -7 -26 -15 -8 -9 -18 -13 -22 -10 -3 4 5
15 19 25 28 22 40 25 40 10z m5510 0 c0 -5 -7 -10 -15 -10 -8 0 -15 5 -15 10
0 6 7 10 15 10 8 0 15 -4 15 -10z m60 -40 c20 -15 21 -20 8 -20 -9 0 -21 6
-25 14 -4 7 -15 16 -23 19 -13 5 -13 5 0 6 8 0 26 -8 40 -19z m-5658 -20 c-12
-11 -27 -20 -33 -20 -7 0 -5 8 6 20 10 11 25 20 33 20 12 0 11 -5 -6 -20z
m5703 -10 c3 -5 -1 -10 -10 -10 -9 0 -13 5 -10 10 3 6 8 10 10 10 2 0 7 -4 10
-10z m66 -58 c-6 -2 -18 4 -27 12 -8 9 -20 16 -25 16 -6 0 -7 4 -4 10 4 6 18
1 36 -12 17 -13 25 -24 20 -26z m-5803 3 c25 -39 26 -45 12 -45 -5 0 -10 7
-10 15 0 8 -3 15 -7 15 -5 0 -16 12 -26 25 -13 18 -14 25 -5 25 7 0 23 -16 36
-35z m5892 -64 c-1 -3 -10 -17 -21 -30 -24 -29 -37 -21 -16 10 14 20 14 23 -9
44 -36 33 -29 40 11 9 19 -14 35 -29 35 -33z m-5850 -1 c0 -5 -2 -10 -4 -10
-3 0 -8 5 -11 10 -3 6 -1 10 4 10 6 0 11 -4 11 -10z m33 -41 c10 -11 17 -25
15 -30 -2 -6 -14 4 -26 20 -25 35 -16 42 11 10z m5767 -23 c0 -3 -4 -8 -10
-11 -5 -3 -10 -1 -10 4 0 6 5 11 10 11 6 0 10 -2 10 -4z m-46 -58 c-17 -18
-41 -44 -52 -57 -12 -14 -22 -20 -22 -15 0 5 16 27 35 47 19 20 35 42 35 47 0
6 8 10 17 10 13 0 10 -7 -13 -32z m-5654 2 c0 -6 43 -53 96 -105 53 -53 94
-98 91 -101 -7 -7 -207 193 -207 206 0 6 5 10 10 10 6 0 10 -5 10 -10z m5550
-120 c0 -5 -5 -10 -11 -10 -5 0 -7 5 -4 10 3 6 8 10 11 10 2 0 4 -4 4 -10z
m-20 -24 c0 -3 -4 -8 -10 -11 -5 -3 -10 -1 -10 4 0 6 5 11 10 11 6 0 10 -2 10
-4z m-30 -26 c0 -5 -4 -10 -10 -10 -5 0 -10 5 -10 10 0 6 5 10 10 10 6 0 10
-4 10 -10z m-80 -72 c-83 -75 -80 -73 -80 -55 0 9 5 17 10 17 6 0 22 11 37 24
14 13 30 29 37 34 6 6 16 11 21 11 6 1 -6 -13 -25 -31z m-5160 -9 c0 -5 7 -9
15 -9 8 0 15 -4 15 -9 0 -5 10 -12 23 -16 13 -4 17 -8 10 -11 -7 -3 -31 7 -53
23 -40 28 -53 47 -25 37 8 -4 15 -10 15 -15z m105 -69 c-3 -5 -12 -7 -20 -3
-21 7 -19 13 6 13 11 0 18 -4 14 -10z m4962 4 c-3 -3 -12 -4 -19 -1 -8 3 -5 6
6 6 11 1 17 -2 13 -5z m-4917 -24 c0 -5 -7 -10 -15 -10 -8 0 -15 5 -15 10 0 6
7 10 15 10 8 0 15 -4 15 -10z m4885 0 c-3 -5 -10 -10 -16 -10 -5 0 -9 5 -9 10
0 6 7 10 16 10 8 0 12 -4 9 -10z m-4825 -20 c12 -8 9 -10 -12 -10 -16 0 -28 5
-28 10 0 13 20 13 40 0z m4790 0 c0 -5 -7 -10 -16 -10 -8 0 -12 5 -9 10 3 6
10 10 16 10 5 0 9 -4 9 -10z m-4708 -33 c-31 -7 -46 -7 -54 1 -9 9 1 12 43 11
l54 -1 -43 -11z m4663 3 c-3 -5 -10 -10 -16 -10 -5 0 -9 5 -9 10 0 6 7 10 16
10 8 0 12 -4 9 -10z m-4500 -20 c-3 -5 -21 -10 -40 -10 -19 0 -37 5 -40 10 -4
6 12 10 40 10 28 0 44 -4 40 -10z m4460 0 c-3 -5 -15 -10 -26 -10 -11 0 -17 5
-14 10 3 6 15 10 26 10 11 0 17 -4 14 -10z m-67 -27 c-10 -2 -26 -2 -35 0 -10
3 -2 5 17 5 19 0 27 -2 18 -5z m-63 -23 c-3 -6 -52 -10 -111 -10 -63 0 -104 4
-104 10 0 6 44 10 111 10 71 0 108 -4 104 -10z"/>
<path d="M2050 3750 c0 -5 7 -10 15 -10 8 0 15 5 15 10 0 6 -7 10 -15 10 -8 0
-15 -4 -15 -10z"/>
<path d="M2100 3745 c0 -16 11 -16 143 -6 4 1 7 6 7 11 0 6 -32 10 -75 10 -61
0 -75 -3 -75 -15z"/>
<path d="M4030 3750 c0 -5 7 -10 15 -10 8 0 15 5 15 10 0 6 -7 10 -15 10 -8 0
-15 -4 -15 -10z"/>
<path d="M4080 3745 c0 -16 36 -20 78 -9 39 11 24 24 -28 24 -38 0 -50 -4 -50
-15z"/>
<path d="M4200 3751 c0 -13 61 -25 69 -14 3 6 13 13 21 16 8 3 -9 6 -37 6 -29
1 -53 -3 -53 -8z"/>
<path d="M1988 3733 c7 -3 16 -2 19 1 4 3 -2 6 -13 5 -11 0 -14 -3 -6 -6z"/>
<path d="M3890 3710 c0 -5 7 -10 16 -10 8 0 12 5 9 10 -3 6 -10 10 -16 10 -5
0 -9 -4 -9 -10z"/>
<path d="M2378 3703 c7 -3 16 -2 19 1 4 3 -2 6 -13 5 -11 0 -14 -3 -6 -6z"/>
<path d="M3760 3680 c0 -5 5 -10 10 -10 6 0 10 5 10 10 0 6 -4 10 -10 10 -5 0
-10 -4 -10 -10z"/>
<path d="M2775 3306 c-93 -30 -131 -62 -166 -141 -22 -48 -22 -60 -21 -320 3
-530 14 -1020 23 -1030 5 -5 9 18 9 58 l0 67 30 0 c17 0 30 5 30 11 0 7 -12
10 -30 7 -24 -4 -30 -1 -30 14 0 15 8 18 50 18 45 0 50 2 51 23 0 21 1 21 8 2
5 -11 10 -74 12 -140 l4 -120 -55 -7 c-30 -4 -61 -9 -68 -10 -8 -1 -20 -11
-27 -22 -15 -24 -26 -126 -14 -126 4 0 34 7 66 15 73 19 158 19 253 0 250 -51
224 -51 445 5 105 26 221 26 299 0 80 -27 82 -27 80 23 -2 86 -22 107 -109
117 -47 5 -50 7 -53 35 -7 53 10 280 19 264 4 -9 9 -34 10 -58 2 -32 7 -41 18
-38 9 1 15 10 13 20 -2 11 4 17 18 17 15 0 20 -6 20 -26 0 -30 22 -28 26 2 7
38 16 308 23 689 8 402 4 474 -31 540 -23 42 -55 70 -113 97 -49 22 -58 23
-400 25 -263 2 -360 -1 -390 -11z m724 -255 c13 -3 37 -22 52 -41 l27 -35 4
-305 3 -305 -23 -33 c-44 -62 -47 -62 -412 -62 -354 0 -360 1 -406 52 -12 12
-25 34 -30 48 -9 27 -7 534 2 586 6 34 57 89 89 97 31 7 667 6 694 -2z m-366
-898 c-7 -2 -21 -2 -30 0 -10 3 -4 5 12 5 17 0 24 -2 18 -5z m70 0 c-7 -2 -19
-2 -25 0 -7 3 -2 5 12 5 14 0 19 -2 13 -5z m185 0 c-10 -2 -26 -2 -35 0 -10 3
-2 5 17 5 19 0 27 -2 18 -5z"/>
<path d="M2827 2960 l-27 -21 0 -268 c0 -247 1 -269 18 -284 16 -15 55 -17
334 -17 l316 0 16 25 c14 21 16 61 16 279 0 235 -1 256 -19 277 l-19 24 -304
3 c-297 3 -305 2 -331 -18z"/>
<path d="M1712 2954 c-22 -15 -22 -18 -22 -278 0 -242 1 -264 18 -279 16 -15
48 -17 239 -17 193 0 222 2 234 17 11 12 15 74 17 273 4 257 4 258 -19 279
-22 20 -32 21 -234 21 -174 0 -214 -3 -233 -16z"/>
<path d="M4150 2950 c-19 -19 -20 -33 -20 -278 0 -239 1 -260 19 -276 16 -14
44 -16 242 -14 l223 3 13 25 c9 18 13 93 13 272 0 242 -1 248 -22 268 -20 19
-34 20 -235 20 -200 0 -214 -1 -233 -20z"/>
<path d="M1879 2124 c-31 -7 -69 -12 -84 -11 -15 1 -30 -4 -32 -11 -4 -10 19
-12 106 -8 62 2 111 0 111 -5 0 -5 7 -9 15 -9 8 0 15 4 15 10 0 5 6 7 13 5 6
-3 35 -7 62 -9 28 -2 65 -7 83 -11 21 -5 32 -4 32 4 0 6 -9 11 -20 11 -12 0
-35 7 -52 16 -22 12 -46 15 -79 11 -26 -3 -49 -2 -51 2 -6 16 -64 18 -119 5z"/>
<path d="M4305 2130 c-16 -4 -48 -8 -71 -9 -22 0 -49 -8 -60 -16 -10 -8 -29
-15 -41 -15 -12 0 -25 -4 -28 -10 -8 -13 38 -13 51 -1 12 13 206 22 224 11 9
-5 17 -5 21 1 6 10 119 -1 167 -16 12 -4 22 -3 22 1 -1 12 -69 46 -79 39 -5
-2 -34 2 -65 10 -61 16 -93 17 -141 5z"/>
<path d="M1717 2083 c-13 -13 -7 -21 13 -16 11 3 20 9 20 14 0 10 -24 12 -33
2z"/>
<path d="M1840 2060 c0 -5 -16 -10 -35 -10 -19 0 -35 -5 -35 -11 0 -7 14 -9
43 -4 84 13 219 17 230 6 6 -6 29 -11 52 -11 29 0 36 3 25 10 -8 5 -30 10 -48
10 -20 0 -31 4 -27 10 4 6 -32 10 -99 10 -64 0 -106 -4 -106 -10z"/>
<path d="M4240 2062 c0 -4 -8 -9 -17 -10 -68 -7 -81 -22 -20 -22 25 0 49 5 52
10 3 6 52 10 111 10 63 0 104 -4 104 -10 0 -5 16 -10 36 -10 32 0 35 2 23 16
-8 10 -21 13 -36 9 -13 -3 -23 -1 -23 5 0 6 -44 10 -115 10 -63 0 -115 -4
-115 -8z"/>
<path d="M1685 2050 c-3 -5 -1 -10 4 -10 6 0 11 5 11 10 0 6 -2 10 -4 10 -3 0
-8 -4 -11 -10z"/>
<path d="M2211 2057 c16 -13 89 -35 89 -27 0 6 -9 10 -20 10 -11 0 -20 5 -20
10 0 6 -12 10 -27 10 -14 0 -24 -2 -22 -3z"/>
<path d="M4058 2053 c6 -2 18 -2 25 0 6 3 1 5 -13 5 -14 0 -19 -2 -12 -5z"/>
<path d="M4605 2050 c3 -5 8 -10 11 -10 2 0 4 5 4 10 0 6 -5 10 -11 10 -5 0
-7 -4 -4 -10z"/>
<path d="M4005 2030 c-3 -6 1 -7 9 -4 18 7 21 14 7 14 -6 0 -13 -4 -16 -10z"/>
<path d="M4632 2020 c0 -14 2 -19 5 -12 2 6 2 18 0 25 -3 6 -5 1 -5 -13z"/>
<path d="M1660 2015 c0 -8 5 -15 10 -15 6 0 10 7 10 15 0 8 -4 15 -10 15 -5 0
-10 -7 -10 -15z"/>
<path d="M2147 2024 c-10 -11 3 -24 24 -24 23 0 25 15 3 24 -19 7 -19 7 -27 0z"/>
<path d="M1750 2009 c0 -5 5 -7 10 -4 6 3 10 8 10 11 0 2 -4 4 -10 4 -5 0 -10
-5 -10 -11z"/>
<path d="M2315 2010 c3 -5 11 -10 16 -10 6 0 7 5 4 10 -3 6 -11 10 -16 10 -6
0 -7 -4 -4 -10z"/>
<path d="M3975 2010 c-3 -5 -1 -10 4 -10 6 0 11 5 11 10 0 6 -2 10 -4 10 -3 0
-8 -4 -11 -10z"/>
<path d="M4110 2010 c0 -5 -9 -10 -19 -10 -11 0 -23 -4 -26 -10 -8 -12 19 -13
43 -1 9 5 28 14 42 19 25 10 24 11 -7 11 -18 1 -33 -3 -33 -9z"/>
<path d="M4552 2006 c7 -8 15 -12 17 -11 5 6 -10 25 -20 25 -5 0 -4 -6 3 -14z"/>
<path d="M1731 1984 c0 -11 3 -14 6 -6 3 7 2 16 -1 19 -3 4 -6 -2 -5 -13z"/>
<path d="M2200 1990 c0 -5 9 -10 21 -10 11 0 17 5 14 10 -3 6 -13 10 -21 10
-8 0 -14 -4 -14 -10z"/>
<path d="M4587 1973 c-11 -10 -8 -83 3 -83 6 0 10 20 10 45 0 46 -2 50 -13 38z"/>
<path d="M4650 1970 c0 -5 5 -10 10 -10 6 0 10 5 10 10 0 6 -4 10 -10 10 -5 0
-10 -4 -10 -10z"/>
<path d="M1705 1951 c-3 -10 -1 -29 4 -42 9 -21 10 -19 10 19 1 45 -4 54 -14
23z"/>
<path d="M2255 1960 c3 -5 10 -10 16 -10 5 0 9 5 9 10 0 6 -7 10 -16 10 -8 0
-12 -4 -9 -10z"/>
<path d="M4028 1958 c9 -9 15 -9 24 0 9 9 7 12 -12 12 -19 0 -21 -3 -12 -12z"/>
<path d="M1643 1925 c0 -22 2 -30 4 -17 2 12 2 30 0 40 -3 9 -5 -1 -4 -23z"/>
<path d="M2290 1940 c0 -5 7 -10 16 -10 8 0 12 5 9 10 -3 6 -10 10 -16 10 -5
0 -9 -4 -9 -10z"/>
<path d="M3981 1930 c-18 -15 -19 -20 -7 -20 9 0 16 5 16 10 0 6 7 10 15 10 8
0 15 5 15 10 0 15 -12 12 -39 -10z"/>
<path d="M2343 1900 c14 -11 29 -20 33 -20 4 0 -2 9 -14 20 -12 11 -26 20 -33
20 -6 0 0 -9 14 -20z"/>
<path d="M3935 1889 c-11 -17 1 -21 15 -4 8 9 8 15 2 15 -6 0 -14 -5 -17 -11z"/>
<path d="M1818 1813 c12 -2 32 -2 45 0 12 2 2 4 -23 4 -25 0 -35 -2 -22 -4z"/>
<path d="M2013 1813 c9 -2 25 -2 35 0 9 3 1 5 -18 5 -19 0 -27 -2 -17 -5z"/>
<path d="M4253 1813 c9 -2 25 -2 35 0 9 3 1 5 -18 5 -19 0 -27 -2 -17 -5z"/>
<path d="M4443 1813 c15 -2 37 -2 50 0 12 2 0 4 -28 4 -27 0 -38 -2 -22 -4z"/>
<path d="M2442 1780 c0 -14 2 -19 5 -12 2 6 2 18 0 25 -3 6 -5 1 -5 -13z"/>
<path d="M1918 1743 c18 -2 45 -2 60 0 15 2 0 4 -33 4 -33 0 -45 -2 -27 -4z"/>
<path d="M4318 1743 c18 -2 45 -2 60 0 15 2 0 4 -33 4 -33 0 -45 -2 -27 -4z"/>
</g>
</svg>
